<svg xmlns="http://www.w3.org/2000/svg" width="237.125" height="35.059"><path fill="#5d9741" d="M25.083 0h212.042v35H25.083z"/><path fill="#c1d72f" d="M0 .029h122.833v35H0z"/><path d="M142.992 14a4.188 4.188 0 011.644 1.554 4.239 4.239 0 01.594 2.226 4.323 4.323 0 01-.594 2.25 4.2 4.2 0 01-1.644 1.572 5.123 5.123 0 01-4.7 0 4.214 4.214 0 01-1.638-1.572 4.327 4.327 0 01-.594-2.25 4.244 4.244 0 01.594-2.226A4.2 4.2 0 01138.293 14a5.174 5.174 0 014.7 0zm-3.336 1.812a2.178 2.178 0 00-.756.822 2.4 2.4 0 00-.282 1.158 2.434 2.434 0 00.282 1.164 2.215 2.215 0 00.756.834 1.855 1.855 0 001.026.306 1.778 1.778 0 001-.306 2.126 2.126 0 00.726-.828 2.559 2.559 0 00.264-1.17 2.533 2.533 0 00-.264-1.158 2.094 2.094 0 00-.72-.822 1.8 1.8 0 00-1.008-.3 1.882 1.882 0 00-1.025.296zm8.621-2.224h2.9l1.392 2.2 1.4-2.2h2.94l-2.748 4.02 3 4.392h-3l-1.6-2.4L151 22h-2.916l2.976-4.284zm20.04 0l-3.024 5.748V22h-2.5v-2.616l-3.084-5.8h2.5l1.836 3.432 1.788-3.432zm8.688 4.056h2.148v3.419a6.036 6.036 0 01-1.692.792 6.463 6.463 0 01-1.908.313 4.71 4.71 0 01-2.316-.57 4.2 4.2 0 01-1.62-1.565 4.33 4.33 0 01-.588-2.244A4.186 4.186 0 01173.315 14a5.1 5.1 0 012.406-.564 5.6 5.6 0 011.92.348 4.965 4.965 0 011.632.948l-1.416 1.7a3.351 3.351 0 00-1.014-.672 2.845 2.845 0 00-1.134-.252 2.026 2.026 0 00-1.086.3 2.1 2.1 0 00-.762.822 2.582 2.582 0 00.006 2.334 2.12 2.12 0 00.774.828 2.055 2.055 0 001.092.3 3.063 3.063 0 001.272-.348zm6.024-4.056h6.876v1.92h-4.38v1.32h3.975v1.92h-3.972v1.332h4.5V22h-7zm16.536 0h2.28V22h-2.124l-3.564-4.68V22h-2.292v-8.412H196l3.564 4.692zM217.4 14.62a4.61 4.61 0 01.984 3.168 4.657 4.657 0 01-.984 3.18 4.121 4.121 0 01-5.634.006 4.672 4.672 0 01-.978-3.186 4.629 4.629 0 01.978-3.168 4.146 4.146 0 015.634 0zm-3.768 1.266a4.476 4.476 0 00-.288 1.9 4.52 4.52 0 00.288 1.907.994.994 0 00.96.564.972.972 0 00.942-.564 4.612 4.612 0 00.282-1.907 4.568 4.568 0 00-.282-1.9.975.975 0 00-.942-.558 1 1 0 00-.963.558zm8.247-.45a.611.611 0 00.114-.312q0-.276-.384-.276a1.637 1.637 0 00-.66.168 3.751 3.751 0 00-.756.468l-.636-1.164a4.235 4.235 0 012.328-.792 2.28 2.28 0 011.35.378 1.152 1.152 0 01.534.978 1.519 1.519 0 01-.264.822 4.864 4.864 0 01-.756.882l-.828.792h1.932v1.248h-4.092v-1.02l1.836-1.824a2.054 2.054 0 00.282-.348zm-206.529 3.4V22h-1.483v-8.531h3.264a3.3 3.3 0 012.271.745 2.5 2.5 0 01.841 1.971 2.42 2.42 0 01-.823 1.953 3.457 3.457 0 01-2.306.7zm0-1.2h1.781a1.754 1.754 0 001.207-.372 1.367 1.367 0 00.416-1.075 1.475 1.475 0 00-.422-1.1 1.626 1.626 0 00-1.16-.425H15.35zm15.636.321a5.234 5.234 0 01-.434 2.2 3.278 3.278 0 01-1.239 1.453 3.635 3.635 0 01-3.7 0 3.329 3.329 0 01-1.254-1.444A5.07 5.07 0 0123.908 18v-.48a5.189 5.189 0 01.442-2.2 3.325 3.325 0 011.25-1.462 3.643 3.643 0 013.7-.006 3.283 3.283 0 011.245 1.441 5.178 5.178 0 01.445 2.188zm-1.486-.445a3.729 3.729 0 00-.536-2.174 1.892 1.892 0 00-3.023 0 3.657 3.657 0 00-.554 2.13v.492a3.7 3.7 0 00.548 2.174 1.764 1.764 0 001.521.768 1.743 1.743 0 001.515-.75 3.781 3.781 0 00.53-2.191zm12.293 2.379l1.313-6.422h1.471L42.608 22H41.19l-1.623-6.229L37.909 22h-1.424l-1.969-8.531h1.471l1.324 6.41 1.629-6.41h1.242zm11.494-1.7h-3.5V20.8h4.1V22H48.3v-8.531h5.537v1.2h-4.054v2.351h3.5zm7.574.528h-1.653V22h-1.482v-8.531h3a3.489 3.489 0 012.279.663 2.344 2.344 0 01.8 1.917 2.4 2.4 0 01-.413 1.434 2.623 2.623 0 01-1.151.889l1.916 3.553V22h-1.585zm-1.652-1.2h1.523a1.694 1.694 0 001.172-.378 1.318 1.318 0 00.422-1.034 1.4 1.4 0 00-.39-1.061 1.655 1.655 0 00-1.163-.387h-1.565zm13.632.672h-3.5V20.8h4.1V22h-5.587v-8.531h5.537v1.2h-4.054v2.351h3.5zM77.279 22v-8.531H79.8a3.952 3.952 0 012.007.5 3.436 3.436 0 011.356 1.43 4.538 4.538 0 01.48 2.121v.428a4.519 4.519 0 01-.483 2.133 3.4 3.4 0 01-1.378 1.419 4.135 4.135 0 01-2.048.5zm1.482-7.336V20.8h.967a2.229 2.229 0 001.79-.729 3.165 3.165 0 00.636-2.09v-.475a3.251 3.251 0 00-.6-2.117 2.142 2.142 0 00-1.752-.731zM93.388 22v-8.531h2.924a3.57 3.57 0 012.2.58 2.043 2.043 0 01.756 1.729 1.842 1.842 0 01-.316 1.055 2.037 2.037 0 01-.926.727 1.883 1.883 0 011.069.706 2.056 2.056 0 01.378 1.245 2.271 2.271 0 01-.771 1.846A3.35 3.35 0 0196.5 22zm1.482-4.939h1.453a1.68 1.68 0 001.081-.313 1.074 1.074 0 00.39-.888 1.089 1.089 0 00-.36-.914 1.82 1.82 0 00-1.122-.281H94.87zm0 1.09V20.8h1.646a1.6 1.6 0 001.09-.344A1.206 1.206 0 0098 19.5a1.215 1.215 0 00-1.36-1.35zm11.189-.639l1.963-4.043h1.641l-2.863 5.39V22h-1.488v-3.141l-2.865-5.391h1.653z" fill="#fff"/></svg>